<svg width="8" height="7" viewBox="0 0 8 7" fill="none" xmlns="http://www.w3.org/2000/svg">
<path d="M5.28041 6.30238C5.36147 5.90035 5.44153 5.4981 5.36107 5.09118C5.26385 4.59063 5.00473 4.16847 4.53694 3.85066C3.79381 3.34706 2.77414 3.03763 2.38238 2.24152C2.11169 1.6921 2.32146 1.08496 2.55929 0.559382C2.59846 0.472136 2.63548 0.39173 2.67592 0.303858C2.45729 0.327124 2.25129 0.385351 2.06027 0.474493C0.869427 1.04585 0.73304 2.77666 1.76109 4.34514C2.653 5.70471 4.12748 6.49299 5.28041 6.30238Z" fill="#1E1E1C"/>
<path d="M3.08407 0.296944C3.08086 0.307203 3.0731 0.318255 3.06807 0.330849C2.81103 0.900594 2.56406 1.5716 2.9544 2.14657C3.491 2.93919 4.60879 3.1547 5.29991 3.81042C5.66865 4.16695 5.87092 4.63015 5.88747 5.104C5.9069 5.4832 5.81941 5.85443 5.74846 6.22762C5.81197 6.20642 5.87702 6.18374 5.94174 6.15182C7.13177 5.58303 7.26443 3.85045 6.23865 2.28157C5.43772 1.06286 4.16958 0.300733 3.08407 0.296944Z" fill="#1E1E1C"/>
</svg>
