<svg width="8" height="9" viewBox="0 0 8 9" fill="none" xmlns="http://www.w3.org/2000/svg">
<g opacity="0.25">
<path d="M5.28065 7.30219C5.36171 6.90017 5.44177 6.49792 5.36131 6.09099C5.26409 5.59044 5.00497 5.16829 4.53718 4.85048C3.79406 4.34687 2.77439 4.03745 2.38263 3.24133C2.11194 2.69191 2.32171 2.08478 2.55953 1.5592C2.5987 1.47195 2.63572 1.39155 2.67616 1.30368C2.45753 1.32694 2.25153 1.38517 2.06051 1.47431C0.869672 2.04567 0.733284 3.77647 1.76133 5.34496C2.65324 6.70453 4.12772 7.4928 5.28065 7.30219Z" fill="#1E1E1C"/>
<path d="M3.08432 1.29676C3.0811 1.30702 3.07334 1.31807 3.06832 1.33067C2.81128 1.90041 2.56431 2.57142 2.95464 3.14639C3.49125 3.93901 4.60903 4.15451 5.30015 4.81023C5.6689 5.16676 5.87116 5.62997 5.88772 6.10381C5.90714 6.48302 5.81965 6.85425 5.74871 7.22744C5.81222 7.20624 5.87726 7.18356 5.94198 7.15164C7.13202 6.58285 7.26467 4.85027 6.23889 3.28139C5.43796 2.06267 4.16983 1.30055 3.08432 1.29676Z" fill="#1E1E1C"/>
</g>
</svg>
